<?xml version="1.0" encoding="UTF-8" standalone="no"?>
<svg
   xmlns:osb="http://www.openswatchbook.org/uri/2009/osb"
   xmlns:dc="http://purl.org/dc/elements/1.1/"
   xmlns:cc="http://creativecommons.org/ns#"
   xmlns:rdf="http://www.w3.org/1999/02/22-rdf-syntax-ns#"
   xmlns:svg="http://www.w3.org/2000/svg"
   xmlns="http://www.w3.org/2000/svg"
   height="100"
   width="100"
   id="svg4"
   xml:space="preserve"
   enable-background="new 0 0 100 100"
   viewBox="0 0 100 100"
   y="0px"
   x="0px"
   version="1.1"><metadata
     id="metadata10"><rdf:RDF><cc:Work
         rdf:about=""><dc:format>image/svg+xml</dc:format><dc:type
           rdf:resource="http://purl.org/dc/dcmitype/StillImage" /><dc:title></dc:title></cc:Work></rdf:RDF></metadata><defs
     id="defs8"><linearGradient
       osb:paint="solid"
       id="linearGradient4518"><stop
         id="stop4516"
         offset="0"
         style="stop-color:#000000;stop-opacity:1;" /></linearGradient></defs><rect
     y="5e-07"
     x="5e-07"
     height="100"
     width="100"
     id="rect4506"
     style="fill:#008000;fill-opacity:1;stroke:#000000;stroke-width:0;stroke-linecap:round;stroke-linejoin:round;stroke-miterlimit:4;stroke-dasharray:none;stroke-opacity:1" /><g
     transform="translate(46.18644,42.372891)"
     id="layer1"><path
       style="stroke-width:0.65364742"
       id="path2"
       d="m 22.810195,-9.2546441 v 0 l -0.0137,-0.0072 c -0.0445,-0.0196 -0.0895,-0.04052 -0.13335,-0.06078 L -1.1590646,-20.259453 c 0,0 2.00342999,9.219044 2.91396,11.7780739 v 0 c 0,0 -27.2923904,-8.1581739 -30.6233804,-8.9353609 1.09159,4.261781 20.0061904,40.847737 20.0061904,40.847737 3.82253,7.760756 12.67684,12.082674 21.9115696,12.082674 12.94941,0 23.44633,-10.496925 23.44633,-23.445681 6.6e-4,-9.4654686 -5.60895,-17.6203751 -13.68541,-21.3226341 z" /></g></svg>